<svg height="140" viewBox="0 0 740 1009" fill="none" xmlns="http://www.w3.org/2000/svg">
<path d="M289.176 907.363C293.97 904.813 298.356 902.977 302.334 901.855C306.414 900.733 310.749 900.172 315.339 900.172C318.603 900.172 321.663 900.631 324.519 901.549C327.477 902.467 330.027 903.946 332.169 905.986C334.413 908.026 336.147 910.729 337.371 914.095C338.697 917.359 339.36 921.388 339.36 926.182V973H333.852L332.169 963.514H331.863C328.905 967.084 325.437 969.787 321.459 971.623C317.481 973.357 313.044 974.224 308.148 974.224C304.782 974.224 301.671 973.765 298.815 972.847C295.959 971.827 293.46 970.399 291.318 968.563C289.278 966.727 287.646 964.534 286.422 961.984C285.3 959.332 284.739 956.425 284.739 953.263C284.739 949.489 285.504 946.174 287.034 943.318C288.564 940.462 290.706 938.116 293.46 936.28C296.214 934.342 299.478 932.914 303.252 931.996C307.128 931.078 311.412 930.619 316.104 930.619H331.404V925.876C331.404 918.94 329.874 913.993 326.814 911.035C323.754 908.077 319.776 906.598 314.88 906.598C311.922 906.598 308.505 907.057 304.629 907.975C300.753 908.893 296.622 910.576 292.236 913.024L289.176 907.363ZM331.404 936.892L318.705 937.045C314.115 937.147 310.188 937.657 306.924 938.575C303.66 939.391 300.957 940.513 298.815 941.941C296.775 943.267 295.296 944.899 294.378 946.837C293.46 948.673 293.001 950.662 293.001 952.804C293.001 955.456 293.46 957.751 294.378 959.689C295.296 961.525 296.52 963.055 298.05 964.279C299.58 965.503 301.365 966.421 303.405 967.033C305.547 967.543 307.791 967.798 310.137 967.798C311.973 967.798 313.86 967.594 315.798 967.186C317.736 966.676 319.623 965.962 321.459 965.044C323.397 964.024 325.233 962.8 326.967 961.372C328.701 959.842 330.18 958.006 331.404 955.864V936.892ZM386.788 974.224C383.422 974.224 380.26 973.816 377.302 973C374.344 972.082 371.794 970.858 369.652 969.328V1008.19H361.696V900.172H368.275L369.499 909.352C371.845 907.006 374.803 904.915 378.373 903.079C381.943 901.141 386.278 900.172 391.378 900.172C395.764 900.172 399.793 900.937 403.465 902.467C407.239 903.997 410.503 906.241 413.257 909.199C416.011 912.157 418.153 915.829 419.683 920.215C421.213 924.601 421.978 929.599 421.978 935.209C421.978 941.941 420.958 947.755 418.918 952.651C416.98 957.547 414.328 961.627 410.962 964.891C407.698 968.053 403.924 970.399 399.64 971.929C395.458 973.459 391.174 974.224 386.788 974.224ZM389.695 906.598C387.349 906.598 385.105 906.955 382.963 907.669C380.923 908.281 379.036 909.097 377.302 910.117C375.568 911.137 374.038 912.259 372.712 913.483C371.386 914.707 370.366 915.88 369.652 917.002V962.749C371.896 964.483 374.395 965.758 377.149 966.574C380.005 967.39 382.861 967.798 385.717 967.798C389.287 967.798 392.755 967.237 396.121 966.115C399.487 964.993 402.445 963.157 404.995 960.607C407.647 957.955 409.738 954.589 411.268 950.509C412.9 946.327 413.716 941.227 413.716 935.209C413.716 926.131 411.727 919.093 407.749 914.095C403.873 909.097 397.855 906.598 389.695 906.598ZM440.586 973V901.09H448.542V973H440.586ZM444.717 882.577C443.085 882.577 441.657 882.067 440.433 881.047C439.311 879.925 438.75 878.395 438.75 876.457C438.75 874.417 439.311 872.836 440.433 871.714C441.555 870.592 442.932 870.031 444.564 870.031C446.094 870.031 447.42 870.592 448.542 871.714C449.766 872.734 450.378 874.315 450.378 876.457C450.378 878.497 449.817 880.027 448.695 881.047C447.573 882.067 446.247 882.577 444.717 882.577Z" fill="#777"/>
<path d="M0 370C0 70 173 0 370 0C567 0 740 70 740 370C740 670 567 740 370 740C173 740 0 670 0 370Z" fill="#FAFA00"/>
<path d="M346.787 183H395.467L544.473 557H487.483L446.521 453.111H292.765L252.397 557H196L346.787 183ZM307.606 409.775H430.492L405.559 345.067C398.831 328.049 392.696 311.624 387.156 295.794C381.615 279.963 376.074 263.737 370.533 247.114H369.346C363.805 263.737 358.067 279.765 352.13 295.2C346.194 310.635 339.861 327.257 333.133 345.067L307.606 409.775Z" fill="white"/>
</svg>
